<svg width="210" height="25" viewBox="0 0 210 25" fill="none" xmlns="http://www.w3.org/2000/svg">
<path fill-rule="evenodd" clip-rule="evenodd" d="M97.9667 0.541654H106.089L101.267 24.0392H93.1444L97.9667 0.541654ZM11.7 6.51082L10.8778 10.5408H20.8444L19.6 16.51H9.66667L8.12222 24.0283H0L4.82222 0.530823H24.1L22.8556 6.49999H11.7V6.51082ZM26.5111 0.541654L21.6889 24.0392H40.9778L42.2556 17.8967H31.0889L34.6333 0.541654H26.5111ZM54.9556 6.51082L54.4 9.26249H64.6333L63.4667 14.9717H53.2L52.5778 18.0592H64.6556L63.4111 24.0283H43.3889L48.2111 0.530823H67.6555L66.4111 6.49999H54.9556V6.51082ZM84.9111 12.35L95.8889 0.541654H86.7333L81.5667 6.41332L78.6111 0.541654H69.9333L76.0222 11.8842L64.6667 24.0283H74.3778L79.6111 17.9833L82.6111 24.0283H91.3889L84.9111 12.35Z" fill="#FF7100"/>
<path fill-rule="evenodd" clip-rule="evenodd" d="M186 8.81833C185.956 9.69583 185.822 10.4108 185.611 11.1258H177.022C177.6 10.4975 177.789 9.64167 177.744 8.81833H186ZM118.022 24.57C115.567 24.57 113.411 24.1258 111.567 23.2483C109.722 22.36 108.3 21.125 107.3 19.5433C106.3 17.9508 105.8 16.1308 105.8 14.0725C105.8 11.3425 106.444 8.905 107.744 6.77083C109.044 4.63667 110.844 2.96834 113.144 1.7875C115.456 0.606668 118.056 0.0108315 120.978 0.0108315C123.433 0.0108315 125.589 0.455 127.433 1.3325C129.278 2.22083 130.7 3.45584 131.7 5.0375C132 5.51417 132.256 6.0125 132.467 6.5325L120.289 6.52167C117.756 6.52167 115.778 7.77834 114.744 10.01C114.244 11.1042 113.989 12.3067 113.989 13.6067C113.989 16.445 115.811 18.07 118.7 18.07H131.089C129.8 20.085 128.056 21.6667 125.844 22.8042C123.556 23.9742 120.944 24.57 118.022 24.57ZM144.256 24.57C147.167 24.57 149.778 23.9742 152.089 22.7933C154.3 21.6558 156.056 20.0742 157.333 18.0592H144.944C142.044 18.0592 140.233 16.4342 140.233 13.5958C140.233 12.2958 140.489 11.1042 140.989 9.99917C142.011 7.7675 143.989 6.51083 146.522 6.51083H158.7C158.489 6.00167 158.244 5.50333 157.944 5.02667C156.944 3.43417 155.522 2.19917 153.678 1.32167C151.833 0.433335 149.678 0 147.222 0C144.311 0 141.7 0.595833 139.389 1.77667C137.078 2.9575 135.278 4.62584 133.989 6.76C132.689 8.89417 132.044 11.3317 132.044 14.0617C132.044 16.12 132.544 17.94 133.544 19.5325C134.544 21.125 135.967 22.36 137.811 23.2375C139.644 24.1258 141.8 24.57 144.256 24.57ZM159.311 8.81833C159.422 9.5875 159.444 10.3567 159.422 11.1258H151.244C151.256 10.3133 151.156 9.555 150.8 8.81833H159.311ZM159.156 13.4442C159 14.2458 158.778 15.015 158.5 15.7517H149.789C150.3 15.0583 150.667 14.2567 150.911 13.4442H159.156ZM189.178 6.51083L190.4 0.530835H209.678L208.433 6.5L189.178 6.51083ZM206.767 8.81833L206.289 11.1258H188.233L188.711 8.81833H206.767ZM205.811 13.4442L205.333 15.7517H187.289L187.767 13.4442H205.811ZM206.544 18.0592L205.3 24.0283H185.578L186.8 18.0483L206.544 18.0592ZM184.467 13.4442C183.867 14.3433 183.111 15.1125 182.222 15.7517H161.1L161.578 13.4442H184.467ZM162.044 11.1258L162.522 8.81833H170.922L170.444 11.1258H162.044ZM162.989 6.51083L164.211 0.530835H175.944C179.111 0.530835 181.578 1.2025 183.333 2.55667C184.644 3.56417 185.467 4.88583 185.8 6.5H162.989V6.51083ZM179.978 18.0592L183.489 24.0392H175.056L171.611 18.0592H179.978ZM169.022 18.0592L167.822 24.0392H159.411L160.633 18.0592H169.022Z" fill="black"/>
</svg>
