<svg viewBox="0 0 125 20" fill="currentColor" xmlns="http://www.w3.org/2000/svg" id="harwal-logo">
    <path d="M11.1841 11.392C10.4914 11.392 9.9298 10.9142 9.9298 10.3117C9.9298 9.71214 10.4914 9.23534 11.1841 9.23534C11.8843 9.23534 12.4536 9.71214 12.4536 10.3117C12.4536 10.9142 11.8843 11.392 11.1841 11.392ZM20.6648 7.16455C20.6648 4.80515 19.6831 3.02168 17.8421 1.86854C16.9176 1.28906 15.4216 0.828774 14.2936 0.709249C13.5587 0.559924 11.5466 0.5 11.5466 0.5H0V3.34494H11.1841C12.0793 3.37021 12.7974 3.39418 13.1787 3.44439C16.7557 3.86288 17.7893 5.4708 17.7645 7.70937C17.7365 10.0234 16.1356 11.6307 16.1356 11.6307H14.438C15.7273 10.7059 16.1203 9.14205 15.7273 7.82793C15.5218 7.13216 14.7032 6.30941 13.8952 6.00267C13.068 5.68361 11.296 5.67616 11.296 5.67616H0V8.58394H3.76883C3.76883 8.58394 2.4904 9.9188 2.01496 12.0443C1.53984 14.1922 2.28719 16.5743 4.46497 18.2758C6.62845 19.9676 10.4269 20 10.4269 20H22.6378V17.0767C22.6378 17.0767 11.4283 17.0572 11.1841 17.0767C10.6228 17.0951 9.56185 17.0793 8.67426 16.7978C7.39074 16.4133 5.50076 15.8685 4.84691 13.5019C4.22519 11.1413 6.62845 8.58394 6.62845 8.58394H8.6326C8.22585 8.90624 6.28499 10.3117 7.02852 12.4418C7.65151 14.2197 10.2923 14.4727 11.1841 14.5116H22.6378V11.6307H18.8012C18.8012 11.6307 20.6648 9.42839 20.6648 7.16455Z"></path>
    <path d="M121.127 8.03716V0.197517H113.445V8.92752H124.755V8.03716H121.127Z"></path>
    <path d="M99.9035 0.588476H98.4644H97.8923L95.4466 4.08641L93.157 0.588476H90.5561L88.2491 4.17224L85.5189 0.588476L77.7578 0.5V0.588476L83.795 9.5H87.1128L89.1123 6.67408L90.9891 9.5H94.0139L98.4644 2.75696L99.9035 0.588476Z"></path>
    <path d="M49.9504 7.22944H48.4945L49.9504 4.96402L51.3754 7.22944H49.9504ZM50.8927 0.120087L45.2812 8.92723H47.4792L48.058 7.88162H49.9504H51.8585L52.58 8.92723H60.7548L54.3296 0.120087H50.8927Z"></path>
    <path d="M101.667 7.22944H100.215L101.667 4.96402L103.098 7.22944H101.667ZM102.61 0.120087L97 8.92723H99.1957L99.7781 7.88162H101.667H103.578L104.299 8.92723H112.473L106.051 0.120087H102.61Z"></path>
    <path d="M36.0433 4.00271H33.3255V0.5H25.5859V9.5H33.3255V5.33088H36.0433V9.5H43.7946V0.5H36.0433V4.00271Z"></path>
    <path d="M71.4741 5.28358C71.4414 5.49005 71.1568 5.61201 70.8458 5.69486C70.4926 5.77208 70.1136 5.79793 70.1136 5.79793V1.3872C70.416 1.40311 70.6622 1.44421 70.8458 1.50121C71.2648 1.6225 71.3966 1.80213 71.4741 2.00396C71.6097 2.30554 71.5767 4.88688 71.4741 5.28358ZM77.8538 4.24362C78.0672 3.19338 77.9265 2.39502 76.7795 1.422C75.6289 0.455614 74.5064 0.274996 73.0407 0.0923895C72.6932 0.0536146 71.8921 0.0337301 70.8458 0.0204737C67.5613 -0.0255921 62.0078 0.0204737 62.0078 0.0204737V8.54928V8.99602V9H70.1136V6.76233L70.8458 7.69392L71.8921 9H78.248L76.2509 6.23174C76.2509 6.23174 77.6448 5.26734 77.8538 4.24362Z"></path>
    <path d="M25.5859 13.5H124.503V12H25.5859V13.5Z"></path>
    <path d="M29.0387 19.0448V20H26.0859V16H29.0387V16.9232H27.2676V17.5034H28.6995V18.3913H27.2676V19.0448H29.0387Z"></path>
    <path d="M38.8746 20H37.868L36.7644 18.2326C36.6226 18.0062 36.4799 17.7304 36.3358 17.4067C36.401 17.6644 36.4332 17.8831 36.4332 18.0628V20H35.4297V16H36.5988L37.5375 17.465C37.7246 17.7564 37.866 18.0122 37.9624 18.2329C37.8996 17.8911 37.868 17.5414 37.868 17.184V16H38.8746V20Z"></path>
    <path d="M47.0111 16.9582V20H45.9967V16.9582H45.2734V16H47.7341V16.9582H47.0111Z"></path>
    <path d="M57.0856 19.0448V20H54.1328V16H57.0856V16.9232H55.3144V17.5034H56.7463V18.3913H55.3144V19.0448H57.0856Z"></path>
    <path d="M64.6725 17.6147H65.1799C65.3292 17.6147 65.4492 17.5824 65.5399 17.518C65.6309 17.4537 65.676 17.3587 65.676 17.2336C65.676 16.9779 65.5241 16.8499 65.2196 16.8499H64.6725V17.6147ZM66.9293 20H65.6125L65.047 18.4703H64.6725V20H63.4844V16H65.506C65.9521 16 66.2986 16.108 66.5451 16.3241C66.7918 16.5398 66.9151 16.8245 66.9151 17.178C66.9151 17.4087 66.8699 17.6124 66.7789 17.7891C66.6883 17.9662 66.5051 18.1219 66.2289 18.2566L66.9293 20Z"></path>
    <path d="M75.0637 17.6878H75.4789C75.8449 17.6878 76.0279 17.5551 76.0279 17.2893C76.0279 17.0393 75.8587 16.9142 75.5208 16.9142H75.0637V17.6878ZM75.0816 18.5463V20H73.8203V16H75.5502C75.9816 16 76.3091 16.0487 76.534 16.1464C76.7585 16.2441 76.9364 16.3934 77.068 16.5948C77.1994 16.7959 77.2652 17.0216 77.2652 17.2717C77.2652 17.6527 77.1308 17.9602 76.8618 18.1949C76.5927 18.4293 76.2338 18.5463 75.7848 18.5463H75.0816Z"></path>
    <path d="M84.8521 17.6147H85.3596C85.5089 17.6147 85.6289 17.5824 85.7196 17.518C85.8105 17.4537 85.8557 17.3587 85.8557 17.2336C85.8557 16.9779 85.7038 16.8499 85.3992 16.8499H84.8521V17.6147ZM87.1089 20H85.7922L85.2267 18.4703H84.8521V20H83.6641V16H85.6857C86.1318 16 86.4783 16.108 86.7247 16.3241C86.9715 16.5398 87.0948 16.8245 87.0948 17.178C87.0948 17.4087 87.0496 17.6124 86.9586 17.7891C86.868 17.9662 86.6847 18.1219 86.4086 18.2566L87.1089 20Z"></path>
    <path d="M93.5078 20H94.4921V16H93.5078V20Z"></path>
    <path d="M101.375 18.8174L102.469 18.6185C102.561 18.9313 102.797 19.0875 103.178 19.0875C103.474 19.0875 103.622 19.0079 103.622 18.8488C103.622 18.7653 103.587 18.7006 103.519 18.6541C103.451 18.6078 103.328 18.5664 103.152 18.5302C102.479 18.4001 102.047 18.2297 101.856 18.0191C101.665 17.8088 101.569 17.5611 101.569 17.2767C101.569 16.9109 101.706 16.6068 101.981 16.3639C102.255 16.1213 102.651 16 103.166 16C103.948 16 104.464 16.3173 104.716 16.9523L103.74 17.2508C103.639 16.9911 103.434 16.8614 103.124 16.8614C102.867 16.8614 102.739 16.9419 102.739 17.103C102.739 17.1752 102.768 17.2311 102.826 17.2709C102.884 17.3107 102.996 17.3485 103.164 17.3841C103.623 17.4825 103.949 17.5695 104.142 17.6448C104.335 17.7205 104.497 17.8499 104.626 18.0327C104.755 18.2161 104.82 18.4318 104.82 18.6799C104.82 19.0726 104.662 19.3906 104.347 19.6345C104.032 19.8781 103.619 20 103.107 20C102.172 20 101.594 19.606 101.375 18.8174Z"></path>
    <path d="M114.172 19.0448V20H111.219V16H114.172V16.9232H112.4V17.5034H113.832V18.3913H112.4V19.0448H114.172Z"></path>
    <path d="M120.078 18.8174L121.172 18.6185C121.264 18.9313 121.5 19.0875 121.881 19.0875C122.177 19.0875 122.325 19.0079 122.325 18.8488C122.325 18.7653 122.291 18.7006 122.222 18.6541C122.154 18.6078 122.031 18.5664 121.855 18.5302C121.182 18.4001 120.75 18.2297 120.559 18.0191C120.368 17.8088 120.272 17.5611 120.272 17.2767C120.272 16.9109 120.409 16.6068 120.684 16.3639C120.959 16.1213 121.354 16 121.87 16C122.651 16 123.168 16.3173 123.419 16.9523L122.443 17.2508C122.342 16.9911 122.137 16.8614 121.827 16.8614C121.57 16.8614 121.442 16.9419 121.442 17.103C121.442 17.1752 121.471 17.2311 121.529 17.2709C121.587 17.3107 121.7 17.3485 121.867 17.3841C122.326 17.4825 122.652 17.5695 122.845 17.6448C123.039 17.7205 123.2 17.8499 123.329 18.0327C123.458 18.2161 123.523 18.4318 123.523 18.6799C123.523 19.0726 123.365 19.3906 123.05 19.6345C122.736 19.8781 122.322 20 121.81 20C120.875 20 120.298 19.606 120.078 18.8174Z"></path>
</svg>