<svg width="234" height="32" viewBox="0 0 234 32" fill="none" xmlns="http://www.w3.org/2000/svg">
<g clip-path="url(#clip0_981_10670)">
<path d="M73.6869 18.0959L72.8692 17.2753C72.894 17.1112 72.9063 16.9455 72.906 16.7796C72.9082 16.5647 72.8873 16.3503 72.8437 16.1399L73.5104 15.4708C73.6661 15.3146 73.7895 15.1292 73.8737 14.9252C73.9579 14.7211 74.0013 14.5024 74.0013 14.2815C74.0013 14.0607 73.9579 13.842 73.8737 13.6379C73.7895 13.4339 73.6661 13.2485 73.5104 13.0923C73.3548 12.9361 73.17 12.8122 72.9667 12.7277C72.7634 12.6432 72.5454 12.5997 72.3253 12.5997C72.1052 12.5997 71.8873 12.6432 71.684 12.7277C71.4806 12.8122 71.2959 12.9361 71.1402 13.0923L70.3687 13.8666L70.3063 13.8597C70.182 13.8468 70.0571 13.8403 69.9321 13.8403C69.4214 13.8376 68.9194 13.9722 68.4782 14.2302C68.2678 14.3511 68.0746 14.4997 67.9037 14.6721C67.8819 14.692 67.8611 14.7128 67.8413 14.7347C67.8189 14.7572 67.7977 14.7817 67.779 14.8061C67.6421 14.9594 67.5222 15.1274 67.4216 15.3068C67.1632 15.7625 67.0292 16.2785 67.033 16.8027C67.0326 16.9616 67.0445 17.1202 67.0685 17.2772L67.0585 17.2672L66.2371 18.0915C66.0815 18.2477 65.958 18.4331 65.8738 18.6371C65.7896 18.8412 65.7462 19.0599 65.7462 19.2807C65.7462 19.5016 65.7896 19.7203 65.8738 19.9244C65.958 20.1284 66.0815 20.3138 66.2371 20.47C66.3927 20.6262 66.5775 20.75 66.7808 20.8346C66.9842 20.9191 67.2021 20.9626 67.4222 20.9626C67.6423 20.9626 67.8602 20.9191 68.0635 20.8346C68.2669 20.75 68.4516 20.6262 68.6073 20.47L69.4056 19.6688C69.5963 19.7026 69.7896 19.7193 69.9832 19.7189C70.1668 19.7196 70.35 19.7041 70.5309 19.6726L71.3255 20.47C71.4811 20.6262 71.6659 20.75 71.8692 20.8346C72.0726 20.9191 72.2905 20.9626 72.5106 20.9626C72.7307 20.9626 72.9486 20.9191 73.1519 20.8346C73.3553 20.75 73.54 20.6262 73.6957 20.47C73.8513 20.3138 73.9747 20.1284 74.059 19.9244C74.1432 19.7203 74.1865 19.5016 74.1865 19.2807C74.1865 19.0599 74.1432 18.8412 74.059 18.6371C73.9747 18.4331 73.8513 18.2477 73.6957 18.0915M71.3186 13.2607C71.5917 13.0133 71.949 12.8806 72.3167 12.89C72.6845 12.8994 73.0346 13.0503 73.2946 13.3113C73.5547 13.5724 73.7049 13.9238 73.7142 14.2928C73.7235 14.6619 73.5911 15.0204 73.3445 15.2943L72.7831 15.8576C72.6448 15.4115 72.3969 15.0075 72.0621 14.6828C71.6812 14.2969 71.1973 14.0296 70.6687 13.9129L71.3186 13.2607ZM68.4364 20.2972C68.1636 20.5461 67.8058 20.68 67.4373 20.6711C67.0687 20.6623 66.7177 20.5115 66.457 20.2499C66.1964 19.9883 66.046 19.6361 66.0373 19.2662C66.0285 18.8964 66.1619 18.5374 66.4099 18.2636L67.1134 17.5507L67.1265 17.6033C67.1346 17.634 67.1446 17.6659 67.154 17.694C67.2935 18.1406 67.5422 18.5449 67.8775 18.8701C68.1691 19.1674 68.5224 19.3965 68.9123 19.5411C68.9379 19.5524 68.9653 19.5605 68.9927 19.5705C69.0202 19.5806 69.0495 19.5881 69.0769 19.5962C69.09 19.6 69.1031 19.6043 69.1169 19.6075L68.4364 20.2972ZM69.9626 19.1743C69.8039 19.1753 69.6455 19.16 69.4899 19.1286C69.4593 19.1243 69.4275 19.1174 69.3994 19.1111C69.2153 19.0679 69.0375 19.001 68.8705 18.9121C68.6604 18.7993 68.4682 18.6556 68.3004 18.4858C68.1285 18.3171 67.9837 18.1226 67.8713 17.9094C67.7724 17.7201 67.7014 17.5175 67.6605 17.3079C67.6523 17.2659 67.6449 17.2234 67.638 17.1827C67.5568 16.6319 67.6569 16.0695 67.923 15.5809C67.9405 15.5484 67.9605 15.5184 67.9798 15.4852L68.0378 15.3976C68.2554 15.0874 68.5435 14.8338 68.8783 14.6576C69.213 14.4814 69.5847 14.3876 69.9626 14.3842C70.1693 14.3831 70.3752 14.4103 70.5745 14.4649C70.6058 14.4727 70.6366 14.4821 70.6668 14.4931C70.6974 14.5019 70.7292 14.5119 70.7573 14.5225C70.8957 14.5719 71.029 14.6348 71.1552 14.7103C71.5191 14.9135 71.821 15.2123 72.0284 15.5747C72.0686 15.6433 72.1045 15.7144 72.1357 15.7875C72.1501 15.8182 72.1632 15.8501 72.1744 15.8801C72.1856 15.9102 72.2012 15.9502 72.2131 15.9859C72.4163 16.6155 72.3699 17.2995 72.0833 17.8956C72.0665 17.9306 72.0478 17.9651 72.0284 17.9995C71.9199 18.1951 71.7819 18.3727 71.6193 18.5259C71.5949 18.549 71.5719 18.5716 71.5463 18.5929C71.4292 18.6962 71.3017 18.787 71.1658 18.8639C71.1321 18.8833 71.0978 18.9021 71.0635 18.919C70.7231 19.0937 70.3456 19.1834 69.9633 19.1806M73.5248 20.3035C73.2558 20.5728 72.8914 20.724 72.5115 20.724C72.1316 20.724 71.7672 20.5728 71.4983 20.3035L70.8122 19.615C71.2858 19.4799 71.7159 19.2227 72.0596 18.8689C72.1014 18.8251 72.1438 18.7813 72.1844 18.7356C72.205 18.713 72.2243 18.6905 72.2467 18.6673C72.2692 18.6442 72.2854 18.6204 72.3029 18.596C72.5456 18.2924 72.7214 17.9406 72.8187 17.5639L73.5241 18.2718C73.7925 18.5417 73.9432 18.9073 73.9432 19.2886C73.9432 19.6698 73.7925 20.0355 73.5241 20.3054M77.9526 16.9849C78.4204 16.9849 78.7868 16.9248 79.0516 16.8046C79.3053 16.6972 79.5196 16.5138 79.6654 16.2795C79.8108 16.0372 79.8848 15.7585 79.8787 15.4758C79.8886 15.1401 79.7779 14.812 79.5668 14.5513C79.3599 14.3005 79.0738 14.1281 78.756 14.0625C78.5358 14.0105 78.1167 13.9861 77.4967 13.9861H76.3846V19.5856H76.9459V16.9811H77.2578L79.265 19.5818H79.9561L77.9526 16.9849ZM76.9472 16.4372V14.53H77.9314C78.314 14.53 78.5876 14.563 78.7523 14.6289C78.9162 14.6944 79.0556 14.8098 79.1508 14.9588C79.2517 15.1099 79.3046 15.2882 79.3024 15.4702C79.3049 15.6557 79.2526 15.8377 79.1521 15.9934C79.053 16.1491 78.9067 16.2686 78.7348 16.3346C78.5564 16.4059 78.2811 16.4416 77.909 16.4416L76.9472 16.4372ZM85.826 17.3761C85.9957 17.624 86.0892 17.9165 86.0948 18.2173C86.0956 18.416 86.0551 18.6127 85.976 18.7948C85.8968 18.9769 85.7807 19.1405 85.6351 19.2751C85.4876 19.4218 85.3122 19.5371 85.1193 19.6143C84.9264 19.6915 84.72 19.729 84.5124 19.7245C84.1847 19.7277 83.8635 19.6327 83.5899 19.4516C83.3146 19.2714 83.0606 18.9678 82.8277 18.5409L83.3018 18.2549C83.6365 18.872 84.0224 19.1806 84.4594 19.1806C84.6434 19.1814 84.8248 19.1362 84.9871 19.0492C85.1383 18.9723 85.2655 18.855 85.3545 18.7102C85.4436 18.5654 85.491 18.3987 85.4917 18.2286C85.4882 18.0289 85.4213 17.8355 85.3008 17.6765C85.128 17.4262 84.8087 17.1276 84.3459 16.7783C83.8831 16.4291 83.5899 16.1706 83.4764 16.0128C83.286 15.7677 83.182 15.4661 83.1807 15.1553C83.1782 14.9216 83.2385 14.6915 83.3554 14.4894C83.4728 14.2888 83.6431 14.1246 83.8475 14.0149C84.058 13.9001 84.2941 13.8409 84.5336 13.8428C84.7926 13.8415 85.0472 13.9093 85.2715 14.0393C85.4998 14.1695 85.742 14.4101 85.9981 14.761L85.5422 15.1065C85.3332 14.8273 85.1536 14.644 85.0064 14.5544C84.8604 14.466 84.6929 14.4198 84.5224 14.4211C84.4213 14.417 84.3204 14.4331 84.2256 14.4686C84.1309 14.504 84.0441 14.5581 83.9704 14.6277C83.9012 14.692 83.8464 14.7702 83.8095 14.8573C83.7727 14.9443 83.7546 15.0382 83.7564 15.1328C83.7562 15.2548 83.7815 15.3755 83.8307 15.4871C83.9007 15.6279 83.9951 15.755 84.1095 15.8626C84.1827 15.934 84.4228 16.1207 84.8299 16.4228C85.3122 16.78 85.6434 17.0984 85.8235 17.378M31.7629 13.9855H32.3205V19.5856H31.7629V13.9855ZM35.9256 19.5856V13.9817H36.0473L39.7535 18.2768V13.9817H40.3036V19.5818H40.1789L36.4945 15.3412V19.5818L35.9256 19.5856ZM43.4466 14.5338V13.9855H46.5029V14.5338H45.2554V19.5856H44.6859V14.53L43.4466 14.5338ZM49.6434 13.9855H52.8419V14.5338H50.1929V16.2864H52.8125V16.8347H50.1929V19.0348H52.8125V19.5831H49.6353L49.6434 13.9855ZM56.1589 13.9855H57.2703C57.8903 13.9855 58.3103 14.0109 58.5303 14.0618C58.8479 14.1283 59.1338 14.3008 59.3411 14.5513C59.5526 14.8118 59.6633 15.14 59.653 15.4758C59.6541 15.7579 59.5756 16.0346 59.4266 16.2738C59.2811 16.5078 59.0672 16.6909 58.8141 16.7984C58.5484 16.916 58.1816 16.9763 57.7138 16.9792L59.721 19.5793H59.0311L57.024 16.9792H56.7084V19.5793H56.1507L56.1589 13.9855ZM56.7165 14.5338V16.4372L57.6783 16.4447C58.0525 16.4447 58.328 16.4092 58.5047 16.3383C58.6765 16.2723 58.8229 16.153 58.9226 15.9978C59.0223 15.8416 59.0744 15.6595 59.0723 15.4739C59.074 15.2919 59.0212 15.1135 58.9207 14.9619C58.825 14.8132 58.6855 14.6981 58.5215 14.6327C58.3552 14.5663 58.0816 14.5334 57.7007 14.5338H56.7165ZM63.0954 13.9855H63.653V19.5856H63.0954V13.9855ZM70.6687 19.6469H70.6724H70.6687ZM72.5991 21.3494C72.3958 21.3503 72.1942 21.3119 72.0054 21.2361L72.0977 21.0108C72.2919 21.088 72.5013 21.119 72.7095 21.1015C73.1225 21.0646 73.5086 20.8805 73.798 20.5826C74.2726 20.1057 74.4441 19.4197 74.2246 18.8758L74.4498 18.7844C74.7055 19.4178 74.5121 20.2096 73.9695 20.7548C73.6388 21.0938 73.198 21.3028 72.727 21.3438C72.684 21.3469 72.6416 21.3488 72.5985 21.3488M70.6687 19.6469H70.6724H70.6687ZM67.3268 21.3488C66.8326 21.3342 66.3606 21.1393 65.9994 20.8005C65.6381 20.4617 65.4124 20.0024 65.3645 19.5086C65.3444 19.2619 65.3814 19.0138 65.4724 18.7838L65.6969 18.8758C65.6201 19.0709 65.5891 19.2813 65.6065 19.4904C65.6432 19.9046 65.8266 20.2919 66.1236 20.582C66.5989 21.059 67.2825 21.2311 67.8245 21.0108L67.9156 21.2361C67.7284 21.3115 67.5284 21.3498 67.3268 21.3488ZM74.2701 14.7829L74.045 14.6909C74.1219 14.4957 74.1528 14.2854 74.1354 14.0762C74.0988 13.662 73.9154 13.2747 73.6183 12.9846C73.143 12.5077 72.4601 12.3356 71.9174 12.5565L71.8264 12.3306C72.4582 12.0733 73.2472 12.268 73.7899 12.8119C74.128 13.1434 74.3366 13.5855 74.378 14.0581C74.3979 14.3048 74.361 14.5528 74.2701 14.7829ZM90.0025 24.3657V32.0019H26.0613V11.858H28.4895V29.5633H87.5718V24.3682L90.0025 24.3657ZM22.8267 32.0019H20.396V11.858H22.8242L22.8267 32.0019ZM90 0V7.63619H87.5718V2.44108H2.42818V11.858H16.9967V14.2947H2.42818V32H0V0H90Z" fill="#12100B"/>
</g>
<path opacity="0.2" d="M106 32L106 0L107 -4.37114e-08L107 32L106 32Z" fill="#272724"/>
<g clip-path="url(#clip1_981_10670)">
<path d="M157.953 11.7998H139.11V0H123V31.9648H138.934V18.1403H157.777V31.9648H163.06V0H157.953V11.7998Z" fill="#272724"/>
<path d="M183.133 0H167.199V31.9648H183.133V0Z" fill="#272724"/>
<path d="M213.066 12.1875L233.581 0.0352478H212.803L192.202 12.4538V0.0352478H187.182V32H192.026V24.2497L206.287 16.0176L223.893 31.9373H234L213.066 12.1875Z" fill="#272724"/>
</g>
<defs>
<clipPath id="clip0_981_10670">
<rect width="90" height="32" fill="white"/>
</clipPath>
<clipPath id="clip1_981_10670">
<rect width="111" height="32" fill="white" transform="translate(123)"/>
</clipPath>
</defs>
</svg>
