<svg xmlns="http://www.w3.org/2000/svg" width="238" height="48" viewBox="0 0 238 48" fill="none"><script xmlns=""/>
    <g clip-path="url(#clip0_428_5061)">
        <path d="M91.2543 37.6708C91.0729 38.221 90.7179 38.698 90.2422 39.0307C89.7666 39.3634 89.1958 39.534 88.615 39.5169C88.2455 39.5243 87.8783 39.4581 87.5348 39.3223C87.1913 39.1864 86.8784 38.9836 86.6145 38.7257C86.3506 38.4678 86.141 38.16 85.9979 37.8204C85.8548 37.4808 85.7812 37.1161 85.7813 36.7477C85.7813 36.0133 86.074 35.3089 86.595 34.7896C87.116 34.2702 87.8226 33.9785 88.5595 33.9785C88.9269 33.9715 89.2921 34.0372 89.6339 34.1719C89.9756 34.3066 90.2872 34.5075 90.5505 34.7631C90.8755 35.0636 91.1123 35.4465 91.2358 35.8708H89.8282C89.7175 35.6407 89.54 35.449 89.3187 35.3206C89.0975 35.1923 88.8426 35.1331 88.5872 35.1508C88.3779 35.1437 88.1694 35.1807 87.9753 35.2593C87.7812 35.338 87.606 35.4565 87.4609 35.6071C87.3159 35.7578 87.2043 35.9372 87.1335 36.1338C87.0627 36.3303 87.0342 36.5395 87.05 36.7477C87.0386 36.9558 87.07 37.164 87.1422 37.3596C87.2143 37.5552 87.3258 37.7341 87.4697 37.8853C87.6136 38.0365 87.7869 38.1569 87.979 38.239C88.1712 38.3212 88.3782 38.3634 88.5872 38.3631C88.8384 38.3751 89.0878 38.3165 89.3072 38.1941C89.5266 38.0717 89.7071 37.8904 89.8282 37.6708H91.2543Z" fill="#164D9D"/>
        <path d="M94.19 35.2708V39.4062H92.912V35.2708H91.6803V34.1539H95.3846V35.3077L94.19 35.2708Z" fill="#164D9D"/>
        <path d="M101.395 36.7662C101.404 37.3268 101.245 37.8774 100.938 38.3474C100.631 38.8174 100.191 39.1854 99.6727 39.4042C99.1548 39.623 98.5831 39.6826 98.0309 39.5754C97.4787 39.4683 96.9712 39.1992 96.5734 38.8027C96.1756 38.4062 95.9057 37.9004 95.7982 37.35C95.6907 36.7996 95.7505 36.2297 95.97 35.7134C96.1895 35.1972 96.5587 34.758 97.0302 34.4521C97.5017 34.1463 98.0541 33.9878 98.6166 33.9969C99.3534 33.9969 100.06 34.2887 100.581 34.808C101.102 35.3274 101.395 36.0317 101.395 36.7662ZM97.033 36.7662C97.0458 37.0673 97.1474 37.358 97.3251 37.6019C97.5029 37.8458 97.7488 38.032 98.0322 38.1372C98.3155 38.2424 98.6237 38.262 98.9182 38.1935C99.2127 38.1251 99.4804 37.9715 99.6878 37.7521C99.8952 37.5327 100.033 37.2573 100.084 36.9602C100.135 36.6631 100.097 36.3576 99.975 36.0819C99.8527 35.8062 99.6516 35.5726 99.3968 35.4102C99.142 35.2479 98.8449 35.1641 98.5425 35.1692C98.1323 35.1837 97.7442 35.3582 97.4618 35.6552C97.1795 35.9522 97.0255 36.3479 97.033 36.7569V36.7662Z" fill="#164D9D"/>
        <path d="M104.858 38.3077L103.451 35.9077V39.4062H102.173V34.1539H103.636L105.229 36.8677L106.831 34.1539H108.285V39.4431H107.016V35.9077L105.571 38.3077H104.858Z" fill="#164D9D"/>
        <path d="M114.675 39.4062H113.508V38.7692C113.301 39.0344 113.033 39.2459 112.727 39.3857C112.42 39.5255 112.085 39.5895 111.748 39.5723C111.386 39.5806 111.026 39.5139 110.69 39.3763C110.355 39.2388 110.052 39.0333 109.8 38.7731C109.549 38.5128 109.354 38.2033 109.229 37.8643C109.103 37.5252 109.05 37.1638 109.072 36.8031C109.057 36.4416 109.116 36.0809 109.245 35.743C109.375 35.4051 109.572 35.097 109.825 34.8378C110.079 34.5785 110.382 34.3735 110.718 34.2353C111.053 34.0971 111.413 34.0285 111.776 34.0339C112.112 34.0128 112.448 34.0781 112.751 34.2236C113.054 34.3691 113.315 34.5898 113.508 34.8646V34.1539H114.675V39.4062ZM110.359 36.8123C110.359 37.2236 110.523 37.6181 110.815 37.9089C111.107 38.1997 111.502 38.3631 111.915 38.3631C112.328 38.3631 112.723 38.1997 113.015 37.9089C113.307 37.6181 113.471 37.2236 113.471 36.8123C113.471 36.401 113.307 36.0066 113.015 35.7158C112.723 35.4249 112.328 35.2616 111.915 35.2616C111.502 35.2616 111.107 35.4249 110.815 35.7158C110.523 36.0066 110.359 36.401 110.359 36.8123Z" fill="#164D9D"/>
        <path d="M117.879 35.2708V39.4062H116.601V35.2708H115.369V34.1539H119.073V35.3077L117.879 35.2708Z" fill="#164D9D"/>
        <path d="M125.084 36.7662C125.084 37.3139 124.921 37.8493 124.615 38.3047C124.31 38.7601 123.876 39.115 123.369 39.3246C122.861 39.5342 122.302 39.589 121.763 39.4822C121.225 39.3753 120.73 39.1116 120.341 38.7243C119.952 38.337 119.688 37.8436 119.581 37.3064C119.473 36.7692 119.528 36.2124 119.739 35.7064C119.949 35.2004 120.305 34.7679 120.762 34.4636C121.219 34.1594 121.756 33.9969 122.305 33.9969C123.042 33.9969 123.749 34.2887 124.27 34.808C124.791 35.3274 125.084 36.0317 125.084 36.7662ZM120.722 36.7662C120.736 37.0664 120.839 37.3558 121.018 37.5983C121.196 37.8407 121.442 38.0255 121.725 38.1296C122.008 38.2338 122.315 38.2527 122.609 38.184C122.902 38.1153 123.169 37.962 123.376 37.7432C123.583 37.5245 123.721 37.2499 123.772 36.9537C123.824 36.6574 123.786 36.3527 123.665 36.0773C123.544 35.802 123.345 35.5682 123.091 35.4051C122.838 35.242 122.542 35.1567 122.241 35.16C121.828 35.1745 121.437 35.35 121.153 35.6487C120.869 35.9474 120.714 36.3454 120.722 36.7569V36.7662Z" fill="#164D9D"/>
        <path d="M129.14 39.4062L127.797 35.8892L126.445 39.4062H125.084L127.288 34.1539H128.288L130.501 39.4431L129.14 39.4062Z" fill="#164D9D"/>
        <path d="M136.132 36.7662C136.141 37.3268 135.982 37.8774 135.675 38.3474C135.368 38.8174 134.928 39.1854 134.41 39.4042C133.892 39.623 133.32 39.6826 132.768 39.5754C132.216 39.4683 131.708 39.1992 131.31 38.8027C130.913 38.4062 130.643 37.9004 130.535 37.35C130.428 36.7996 130.487 36.2297 130.707 35.7134C130.926 35.1972 131.296 34.758 131.767 34.4521C132.239 34.1463 132.791 33.9878 133.353 33.9969C134.09 33.9969 134.797 34.2887 135.318 34.808C135.839 35.3274 136.132 36.0317 136.132 36.7662ZM131.77 36.7662C131.783 37.0669 131.884 37.3573 132.061 37.601C132.239 37.8447 132.484 38.0309 132.767 38.1365C133.05 38.242 133.357 38.2622 133.652 38.1945C133.946 38.1267 134.214 37.9741 134.421 37.7557C134.629 37.5372 134.768 37.2625 134.82 36.966C134.872 36.6695 134.836 36.3643 134.715 36.0884C134.594 35.8125 134.394 35.5782 134.141 35.4147C133.887 35.2513 133.591 35.1659 133.289 35.1692C132.878 35.1837 132.489 35.3579 132.205 35.6546C131.921 35.9513 131.765 36.347 131.77 36.7569V36.7662Z" fill="#164D9D"/>
        <path d="M139.919 35.2708H138.188V39.4062H136.919V34.1539H139.919V35.2708Z" fill="#164D9D"/>
        <path d="M145.55 34.1539V39.4431H144.281V35.9077L141.91 39.4062H140.614V34.1539H141.883V37.6523L144.253 34.1539H145.55Z" fill="#164D9D"/>
        <path d="M146.43 35.8431C146.432 35.6067 146.482 35.3733 146.577 35.1569C146.673 34.9405 146.811 34.7457 146.984 34.5842C147.158 34.4228 147.362 34.2982 147.585 34.2178C147.808 34.1375 148.045 34.1032 148.282 34.1169H150.477V39.4062H149.189V37.56H148.884L147.763 39.4062H146.226L147.569 37.4585C147.235 37.3388 146.947 37.1194 146.743 36.8303C146.539 36.5412 146.43 36.1965 146.43 35.8431ZM149.208 35.2708H148.374C148.222 35.2708 148.076 35.3311 147.968 35.4384C147.861 35.5457 147.8 35.6913 147.8 35.8431C147.8 35.9949 147.861 36.1404 147.968 36.2478C148.076 36.3551 148.222 36.4154 148.374 36.4154H149.208V35.2708Z" fill="#164D9D"/>
        <path d="M159.135 40.6708L158.867 39.4062H154.949L154.653 40.6708H153.727V38.2523H154.542L156.348 34.1539H157.431L159.2 38.2892H160.015V40.7077L159.135 40.6708ZM156.903 35.8616L155.894 38.2523H157.904L156.903 35.8616Z" fill="#164D9D"/>
        <path d="M165.877 36.7662C165.877 37.3139 165.714 37.8493 165.409 38.3047C165.104 38.7601 164.67 39.115 164.162 39.3246C163.654 39.5342 163.096 39.589 162.557 39.4822C162.018 39.3753 161.523 39.1116 161.134 38.7243C160.746 38.337 160.481 37.8436 160.374 37.3064C160.267 36.7692 160.322 36.2124 160.532 35.7064C160.742 35.2004 161.098 34.7679 161.555 34.4636C162.012 34.1594 162.549 33.9969 163.099 33.9969C163.836 33.9969 164.542 34.2887 165.063 34.808C165.584 35.3274 165.877 36.0317 165.877 36.7662ZM161.515 36.7662C161.526 37.0696 161.627 37.3631 161.805 37.6097C161.982 37.8564 162.229 38.0452 162.514 38.1526C162.799 38.2599 163.11 38.281 163.406 38.2131C163.703 38.1452 163.974 37.9915 164.183 37.7711C164.393 37.5507 164.532 37.2736 164.585 36.9744C164.637 36.6752 164.599 36.3674 164.476 36.0894C164.354 35.8115 164.151 35.5759 163.895 35.4122C163.638 35.2485 163.339 35.164 163.034 35.1692C162.623 35.1837 162.234 35.3579 161.95 35.6546C161.666 35.9513 161.51 36.347 161.515 36.7569V36.7662Z" fill="#164D9D"/>
        <path d="M166.692 34.1539H167.97V36.5539L169.822 34.1169H171.322L169.202 36.7385L171.433 39.4062H169.776L167.924 36.9692V39.4062H166.692V34.1539Z" fill="#164D9D"/>
        <path d="M174.101 35.2708V39.4062H172.823V35.2708H171.591V34.1539H175.295V35.3077L174.101 35.2708Z" fill="#164D9D"/>
        <path d="M181.342 36.7662C181.342 37.3139 181.179 37.8493 180.874 38.3047C180.569 38.7601 180.135 39.115 179.627 39.3246C179.12 39.5342 178.561 39.589 178.022 39.4822C177.483 39.3753 176.988 39.1116 176.6 38.7243C176.211 38.337 175.947 37.8436 175.839 37.3064C175.732 36.7692 175.787 36.2124 175.997 35.7064C176.208 35.2004 176.564 34.7679 177.021 34.4636C177.478 34.1594 178.015 33.9969 178.564 33.9969C179.301 33.9969 180.008 34.2887 180.529 34.808C181.05 35.3274 181.342 36.0317 181.342 36.7662ZM176.981 36.7662C176.993 37.0669 177.095 37.3573 177.272 37.601C177.449 37.8447 177.695 38.0309 177.978 38.1365C178.26 38.242 178.568 38.2622 178.862 38.1945C179.157 38.1267 179.424 37.9741 179.632 37.7557C179.84 37.5372 179.979 37.2625 180.031 36.966C180.083 36.6695 180.046 36.3643 179.925 36.0884C179.805 35.8125 179.605 35.5782 179.351 35.4147C179.098 35.2513 178.801 35.1659 178.499 35.1692C178.088 35.1837 177.699 35.3579 177.415 35.6546C177.132 35.9513 176.976 36.347 176.981 36.7569V36.7662Z" fill="#164D9D"/>
        <path d="M182.13 34.1539H183.296V34.7723C183.513 34.5264 183.781 34.3317 184.082 34.2024C184.383 34.073 184.71 34.0123 185.037 34.0246C185.398 34.0202 185.755 34.0898 186.087 34.2291C186.419 34.3683 186.718 34.5743 186.967 34.8342C187.215 35.0941 187.408 35.4022 187.531 35.7394C187.655 36.0765 187.708 36.4355 187.686 36.7939C187.704 37.1521 187.648 37.5101 187.522 37.846C187.396 38.182 187.203 38.489 186.954 38.7481C186.706 39.0072 186.407 39.2131 186.075 39.3533C185.744 39.4934 185.388 39.5648 185.028 39.5631C184.729 39.5718 184.431 39.5216 184.152 39.4155C183.872 39.3094 183.616 39.1494 183.398 38.9446V41.1692H182.13V34.1539ZM183.361 36.7846C183.356 36.9917 183.393 37.1977 183.47 37.3902C183.546 37.5828 183.661 37.7579 183.807 37.9053C183.953 38.0526 184.128 38.1691 184.32 38.2477C184.512 38.3264 184.719 38.3656 184.926 38.3631C185.331 38.3324 185.71 38.1504 185.986 37.8534C186.262 37.5564 186.416 37.1665 186.416 36.7616C186.416 36.3566 186.262 35.9667 185.986 35.6697C185.71 35.3727 185.331 35.1907 184.926 35.16C184.714 35.1572 184.504 35.1978 184.309 35.2793C184.113 35.3607 183.937 35.4814 183.79 35.6337C183.643 35.7861 183.529 35.9668 183.456 36.1648C183.382 36.3628 183.35 36.5738 183.361 36.7846Z" fill="#164D9D"/>
        <path d="M193.826 39.4062H192.622V38.7692C192.413 39.0345 192.144 39.246 191.836 39.3857C191.528 39.5255 191.191 39.5895 190.853 39.5723C190.491 39.5793 190.132 39.5117 189.798 39.3735C189.464 39.2354 189.162 39.0297 188.912 38.7696C188.661 38.5095 188.467 38.2005 188.342 37.862C188.217 37.5236 188.164 37.163 188.186 36.8031C188.171 36.4424 188.23 36.0825 188.359 35.7452C188.488 35.4079 188.684 35.1003 188.936 34.8412C189.189 34.5821 189.491 34.3769 189.825 34.2381C190.16 34.0993 190.519 34.0298 190.881 34.0339C191.218 34.0138 191.555 34.0796 191.859 34.2249C192.164 34.3702 192.426 34.5904 192.622 34.8646V34.1539H193.789L193.826 39.4062ZM189.501 36.8123C189.485 37.0267 189.513 37.2421 189.583 37.4451C189.654 37.6481 189.767 37.8343 189.913 37.9921C190.06 38.1498 190.237 38.2757 190.435 38.3617C190.633 38.4478 190.846 38.4922 191.062 38.4922C191.277 38.4922 191.491 38.4478 191.688 38.3617C191.886 38.2757 192.063 38.1498 192.21 37.9921C192.356 37.8343 192.469 37.6481 192.54 37.4451C192.61 37.2421 192.639 37.0267 192.622 36.8123C192.639 36.598 192.61 36.3826 192.54 36.1795C192.469 35.9765 192.356 35.7903 192.21 35.6326C192.063 35.4748 191.886 35.349 191.688 35.2629C191.491 35.1768 191.277 35.1324 191.062 35.1324C190.846 35.1324 190.633 35.1768 190.435 35.2629C190.237 35.349 190.06 35.4748 189.913 35.6326C189.767 35.7903 189.654 35.9765 189.583 36.1795C189.513 36.3826 189.485 36.598 189.501 36.8123Z" fill="#164D9D"/>
        <path d="M197.706 32.3077H199.16C199.835 32.2213 200.52 32.354 201.114 32.6862C201.359 32.8522 201.558 33.0772 201.692 33.3402C201.826 33.6032 201.892 33.8958 201.883 34.1908C201.911 34.4671 201.85 34.7451 201.708 34.9843C201.566 35.2234 201.352 35.4111 201.095 35.52C201.447 35.6235 201.755 35.8372 201.975 36.1292C202.202 36.4641 202.318 36.8609 202.309 37.2646C202.317 37.6153 202.231 37.9617 202.06 38.2683C201.889 38.575 201.639 38.8307 201.336 39.0092C200.798 39.2807 200.197 39.4049 199.595 39.3692H197.743L197.706 32.3077ZM199.438 35.0769C200.234 35.0769 200.568 34.8646 200.568 34.3569C200.568 33.8492 200.234 33.6369 199.558 33.6369H199.021V35.0769H199.438ZM199.669 38.16C200.595 38.16 200.984 37.9016 200.984 37.2369C200.984 36.5723 200.549 36.3139 199.642 36.3139H199.021V38.1139L199.669 38.16Z" fill="#164D9D"/>
        <path d="M208.106 34.1539V39.4431H206.837V35.9077L204.457 39.4062H203.17V34.1539H204.429V37.6523L206.809 34.1539H208.106Z" fill="#164D9D"/>
        <path d="M212.745 39.4062V37.3108H210.412V39.4062H209.134V34.1539H210.412V36.1939H212.745V34.1539H214.023V39.4431L212.745 39.4062Z" fill="#164D9D"/>
        <path d="M220.45 36.7662C220.45 37.3139 220.287 37.8493 219.982 38.3047C219.677 38.7601 219.243 39.115 218.735 39.3246C218.228 39.5342 217.669 39.589 217.13 39.4822C216.591 39.3753 216.096 39.1116 215.708 38.7243C215.319 38.337 215.055 37.8436 214.947 37.3064C214.84 36.7692 214.895 36.2124 215.105 35.7064C215.316 35.2004 215.672 34.7679 216.129 34.4636C216.586 34.1594 217.123 33.9969 217.672 33.9969C218.409 33.9969 219.116 34.2887 219.637 34.808C220.158 35.3274 220.45 36.0317 220.45 36.7662ZM216.089 36.7662C216.103 37.0657 216.205 37.3543 216.383 37.5964C216.56 37.8385 216.805 38.0234 217.087 38.1281C217.369 38.2328 217.675 38.2529 217.969 38.1856C218.262 38.1184 218.529 37.967 218.736 37.75C218.944 37.5331 219.083 37.2602 219.137 36.9651C219.19 36.6701 219.156 36.3659 219.038 36.0901C218.919 35.8144 218.723 35.5793 218.472 35.414C218.221 35.2487 217.927 35.1604 217.626 35.16C217.21 35.1697 216.815 35.3431 216.527 35.6423C216.239 35.9416 216.081 36.3423 216.089 36.7569V36.7662Z" fill="#164D9D"/>
        <path d="M221.238 34.1539H222.506V36.5539L224.358 34.1169H225.905L223.784 36.7385L226.016 39.4062H224.358L222.506 36.9692V39.4062H221.238V34.1539Z" fill="#164D9D"/>
        <path d="M227.998 38.9077L226.053 34.1539H227.516L228.739 37.5416L229.97 34.1539H231.443L228.378 41.2062H227.007L227.998 38.9077Z" fill="#164D9D"/>
        <path d="M231.989 34.1539H233.156V34.7723C233.372 34.5264 233.641 34.3317 233.942 34.2024C234.243 34.073 234.569 34.0123 234.897 34.0246C235.257 34.0202 235.614 34.0898 235.946 34.2291C236.278 34.3683 236.578 34.5743 236.826 34.8342C237.075 35.0941 237.267 35.4022 237.391 35.7394C237.515 36.0765 237.567 36.4355 237.546 36.7939C237.563 37.1521 237.507 37.5101 237.382 37.846C237.256 38.182 237.063 38.489 236.814 38.7481C236.565 39.0072 236.266 39.2131 235.935 39.3533C235.604 39.4934 235.248 39.5648 234.888 39.5631C234.589 39.5718 234.291 39.5216 234.011 39.4155C233.731 39.3094 233.476 39.1494 233.258 38.9446V41.1692H231.989V34.1539ZM233.184 36.8216C233.202 37.1208 233.308 37.4082 233.488 37.6481C233.669 37.888 233.915 38.0699 234.199 38.1712C234.482 38.2726 234.788 38.289 235.081 38.2183C235.373 38.1477 235.638 37.9931 235.843 37.7738C236.048 37.5545 236.184 37.28 236.234 36.9844C236.284 36.6888 236.246 36.385 236.125 36.1107C236.003 35.8364 235.804 35.6037 235.551 35.4412C235.298 35.2788 235.003 35.1939 234.703 35.1969C234.498 35.2005 234.296 35.2446 234.108 35.3265C233.921 35.4085 233.752 35.5268 233.61 35.6745C233.469 35.8222 233.359 35.9963 233.285 36.1869C233.212 36.3775 233.178 36.5807 233.184 36.7846V36.8216Z" fill="#164D9D"/>
        <path d="M97.7379 8.99072V23.6861H95.0245V13.5323L88.6161 23.6861H85.8379V8.99072H88.5513V19.1446L94.9504 8.99072H97.7379Z" fill="#164D9D"/>
        <path d="M107.749 23.6861V19.3292H102.878V23.6861H100.229V12.6738H102.878V16.9292H107.749V12.6738H110.407V23.6861H107.749Z" fill="#164D9D"/>
        <path d="M120.075 23.6861V19.3292H115.213V23.6861H112.555V12.6738H115.213V16.9292H120.075V12.6738H122.733V23.6861H120.075Z" fill="#164D9D"/>
        <path d="M136.133 18.203C136.147 19.3677 135.814 20.5103 135.174 21.4851C134.534 22.4599 133.618 23.2226 132.541 23.676C131.465 24.1293 130.278 24.2527 129.13 24.0304C127.983 23.8081 126.929 23.2503 126.101 22.4279C125.274 21.6056 124.71 20.5562 124.484 19.4135C124.257 18.2709 124.377 17.0868 124.829 16.0125C125.28 14.9381 126.042 14.0221 127.018 13.3814C127.994 12.7408 129.139 12.4044 130.308 12.4153C131.849 12.4178 133.326 13.0277 134.417 14.1121C135.509 15.1964 136.125 16.6671 136.133 18.203ZM127.048 18.203C127.075 18.83 127.287 19.4351 127.658 19.9427C128.028 20.4503 128.54 20.8379 129.13 21.0571C129.72 21.2762 130.362 21.3173 130.975 21.1751C131.589 21.0328 132.146 20.7137 132.579 20.2574C133.011 19.8012 133.299 19.2281 133.406 18.6097C133.514 17.9913 133.436 17.355 133.183 16.7804C132.93 16.2057 132.513 15.7181 131.983 15.3785C131.454 15.0389 130.836 14.8622 130.206 14.8707C129.349 14.8973 128.536 15.2586 127.944 15.8768C127.351 16.495 127.026 17.3205 127.039 18.1753L127.048 18.203Z" fill="#164D9D"/>
        <path d="M146.829 20.1323C146.825 20.6199 146.721 21.1017 146.524 21.5481C146.327 21.9945 146.041 22.3962 145.683 22.7287C145.325 23.0613 144.903 23.3176 144.442 23.4822C143.982 23.6469 143.493 23.7162 143.004 23.6861H137.753V12.6738H142.3C144.717 12.6738 146.477 13.7815 146.477 16.0523C146.465 16.4606 146.337 16.8572 146.107 17.1956C145.878 17.5339 145.556 17.8001 145.18 17.963C145.649 18.1063 146.06 18.393 146.356 18.7823C146.652 19.1717 146.817 19.644 146.829 20.1323ZM140.411 17.0492H142.263C143.384 17.0492 143.921 16.6523 143.921 16.0523C143.921 15.4523 143.365 15.0738 142.263 15.0738H140.411V17.0492ZM140.411 21.2861H142.819C142.983 21.3069 143.15 21.2925 143.308 21.244C143.467 21.1955 143.613 21.114 143.737 21.0049C143.861 20.8957 143.961 20.7614 144.029 20.611C144.097 20.4605 144.133 20.2973 144.133 20.1323C144.133 19.9672 144.097 19.804 144.029 19.6535C143.961 19.5031 143.861 19.3688 143.737 19.2597C143.613 19.1505 143.467 19.069 143.308 19.0205C143.15 18.972 142.983 18.9577 142.819 18.9784H140.411V21.2861Z" fill="#164D9D"/>
        <path d="M159.701 23.6861H157.266V22.2553C156.832 22.8155 156.268 23.2621 155.623 23.5564C154.978 23.8507 154.27 23.9839 153.561 23.9446C152.812 23.9582 152.068 23.8181 151.375 23.5328C150.683 23.2476 150.057 22.8235 149.535 22.2867C149.014 21.7499 148.609 21.112 148.346 20.4127C148.083 19.7133 147.967 18.9675 148.005 18.2215C147.968 17.4665 148.087 16.712 148.354 16.0044C148.621 15.2969 149.03 14.6513 149.557 14.1074C150.083 13.5635 150.716 13.1327 151.416 12.8417C152.116 12.5507 152.868 12.4056 153.626 12.4153C154.326 12.3714 155.025 12.507 155.658 12.8092C156.29 13.1114 156.834 13.5701 157.238 14.1415V12.6738H159.673L159.701 23.6861ZM150.7 18.2769C150.67 18.7218 150.733 19.1681 150.884 19.5878C151.036 20.0074 151.272 20.3915 151.579 20.7158C151.886 21.0401 152.257 21.2977 152.669 21.4726C153.08 21.6474 153.524 21.7357 153.971 21.7319C154.418 21.7281 154.86 21.6322 155.269 21.4504C155.677 21.2685 156.044 21.0046 156.345 20.6751C156.647 20.3455 156.876 19.9575 157.021 19.5354C157.165 19.1132 157.22 18.6659 157.182 18.2215C157.212 17.7765 157.149 17.3303 156.998 16.9106C156.847 16.4909 156.61 16.1069 156.303 15.7826C155.996 15.4583 155.625 15.2006 155.213 15.0258C154.802 14.8509 154.359 14.7627 153.911 14.7665C153.464 14.7703 153.022 14.8661 152.613 15.048C152.205 15.2298 151.839 15.4938 151.537 15.8233C151.236 16.1528 151.006 16.5408 150.862 16.963C150.718 17.3852 150.662 17.8325 150.7 18.2769Z" fill="#164D9D"/>
        <path d="M167.443 12.6738H170.092V17.7415L173.926 12.6738H177.139L172.731 18.1384L177.361 23.6769H173.907L170.073 18.6092V23.6769H167.425L167.443 12.6738Z" fill="#164D9D"/>
        <path d="M185.937 23.6861L183.159 16.3661L180.38 23.6861H177.547L182.177 12.6738H184.251L188.882 23.6861H185.937Z" fill="#164D9D"/>
        <path d="M200.18 12.6738V23.6861H197.55V16.4123L192.623 23.6861H189.937V12.6738H192.567V19.9476L197.513 12.6738H200.18Z" fill="#164D9D"/>
        <path d="M209.857 23.6861V19.3292H204.986V23.6861H202.338V12.6738H204.986V16.9292H209.857V12.6738H212.515V23.6861H209.857Z" fill="#164D9D"/>
        <path d="M224.943 12.6738V23.6861H222.304V16.4123L217.358 23.6861H214.664V12.6738H217.303V19.9476L222.257 12.6738H224.943Z" fill="#164D9D"/>
        <path d="M227.091 12.6738H229.749V17.7415L233.583 12.6738H236.787L232.379 18.1384L237.01 23.6769H233.565L229.731 18.6092V23.6769H227.073L227.091 12.6738Z" fill="#164D9D"/>
        <path d="M1.90793 20.6123C2.27049 20.6014 2.62186 20.4847 2.91844 20.2765C3.21502 20.0684 3.44376 19.778 3.57627 19.4414C3.70878 19.1049 3.73922 18.7369 3.66383 18.3833C3.58843 18.0296 3.41052 17.7058 3.15216 17.452C2.8938 17.1983 2.56637 17.0257 2.2105 16.9557C1.85463 16.8858 1.48598 16.9215 1.15031 17.0585C0.814635 17.1955 0.526707 17.4277 0.322255 17.7264C0.117803 18.025 0.00582663 18.377 0.000221192 18.7385C-0.00364735 18.988 0.0432644 19.2356 0.138122 19.4666C0.23298 19.6975 0.373816 19.9068 0.552121 20.082C0.730425 20.2571 0.942498 20.3944 1.17553 20.4855C1.40856 20.5767 1.65771 20.6198 1.90793 20.6123Z" fill="#2286C4"/>
        <path d="M6.64938 33.7846C6.18338 33.7864 5.72843 33.9262 5.34226 34.1862C4.95608 34.4462 4.65608 34.8147 4.48032 35.2449C4.30455 35.6751 4.26094 36.1476 4.35502 36.6025C4.4491 37.0575 4.67663 37.4743 5.00874 37.8001C5.34085 38.126 5.76257 38.3462 6.22041 38.4327C6.67826 38.5193 7.15158 38.4684 7.58033 38.2864C8.00909 38.1044 8.37395 37.7996 8.62864 37.4106C8.88333 37.0216 9.01636 36.566 9.01086 36.1015C9.00353 35.4829 8.75121 34.8922 8.30888 34.4582C7.86654 34.0243 7.27005 33.7821 6.64938 33.7846Z" fill="#2286C4"/>
        <path d="M19.8734 41.677C19.5097 41.6879 19.1572 41.8053 18.86 42.0147C18.5628 42.2241 18.3341 42.5161 18.2024 42.8542C18.0707 43.1924 18.0419 43.5617 18.1195 43.9161C18.1971 44.2705 18.3777 44.5942 18.6388 44.8469C18.8999 45.0996 19.2299 45.27 19.5876 45.3369C19.9453 45.4037 20.3148 45.3641 20.65 45.2229C20.9852 45.0816 21.2713 44.8451 21.4724 44.5428C21.6736 44.2406 21.781 43.8859 21.7811 43.5232C21.7813 43.276 21.7316 43.0313 21.635 42.8036C21.5385 42.576 21.3971 42.3699 21.2192 42.1978C21.0412 42.0256 20.8305 41.8908 20.5993 41.8013C20.3681 41.7119 20.1213 41.6696 19.8734 41.677Z" fill="#8ECEE7"/>
        <path d="M10.9646 12.0001C11.3269 11.9838 11.6765 11.8619 11.9699 11.6494C12.2634 11.4369 12.4877 11.1432 12.6152 10.8047C12.7427 10.4663 12.7677 10.098 12.6871 9.74551C12.6065 9.39303 12.4238 9.0719 12.1618 8.82196C11.8998 8.57201 11.5699 8.40425 11.2131 8.33949C10.8562 8.27473 10.4882 8.31583 10.1546 8.45767C9.82097 8.59951 9.53649 8.83587 9.33642 9.13741C9.13635 9.43895 9.02951 9.7924 9.02914 10.1539C9.02888 10.4035 9.07941 10.6506 9.17766 10.8801C9.2759 11.1097 9.41983 11.3171 9.60075 11.4896C9.78166 11.6622 9.9958 11.7964 10.2302 11.8841C10.4646 11.9719 10.7145 12.0113 10.9646 12.0001Z" fill="#8ECEE7"/>
        <path d="M16.8915 36.1016C16.8859 35.5795 16.7252 35.0707 16.4296 34.6397C16.134 34.2086 15.7168 33.8746 15.2308 33.6799C14.7448 33.4851 14.2117 33.4384 13.6991 33.5457C13.1864 33.6529 12.7172 33.9093 12.3507 34.2823C11.9842 34.6554 11.7369 35.1284 11.6401 35.6415C11.5433 36.1546 11.6013 36.6849 11.8068 37.1651C12.0123 37.6454 12.3561 38.0541 12.7947 38.3397C13.2332 38.6252 13.7469 38.7747 14.2707 38.7693C14.6185 38.7656 14.9622 38.6938 15.2821 38.5577C15.6021 38.4217 15.892 38.2242 16.1354 37.9765C16.3788 37.7288 16.5708 37.4357 16.7005 37.114C16.8302 36.7923 16.8951 36.4483 16.8915 36.1016Z" fill="#8ECEE7"/>
        <path d="M11.261 27.3323C11.2536 26.9041 11.1193 26.4877 10.875 26.1355C10.6306 25.7833 10.2871 25.511 9.88781 25.3531C9.48849 25.1951 9.0512 25.1585 8.63103 25.2478C8.21086 25.3371 7.82662 25.5484 7.52672 25.855C7.22682 26.1617 7.02468 26.5499 6.94577 26.9709C6.86686 27.3918 6.91471 27.8266 7.08329 28.2205C7.25187 28.6144 7.53364 28.9497 7.89309 29.1843C8.25255 29.4188 8.67361 29.542 9.10321 29.5385C9.39058 29.5361 9.67463 29.477 9.93897 29.3645C10.2033 29.2521 10.4427 29.0887 10.6433 28.8836C10.8439 28.6784 11.0018 28.4358 11.1078 28.1695C11.2138 27.9033 11.2659 27.6187 11.261 27.3323Z" fill="#8ECEE7"/>
        <path d="M8.3809 21.1385C8.87397 21.1349 9.35485 20.9854 9.76264 20.7091C10.1704 20.4328 10.4868 20.0421 10.6717 19.5865C10.8565 19.1308 10.9016 18.6307 10.8011 18.1496C10.7006 17.6684 10.4591 17.2278 10.1072 16.8835C9.75535 16.5392 9.30886 16.3067 8.82434 16.2156C8.33981 16.1244 7.83904 16.1786 7.38544 16.3713C6.93184 16.564 6.54583 16.8866 6.27627 17.2981C6.00672 17.7097 5.86576 18.1917 5.87125 18.6832C5.87367 19.0088 5.94057 19.3308 6.06812 19.6306C6.19566 19.9304 6.38135 20.2022 6.61452 20.4303C6.84769 20.6585 7.12375 20.8385 7.42687 20.96C7.72999 21.0815 8.0542 21.1422 8.3809 21.1385Z" fill="#8ECEE7"/>
        <path d="M27.1707 41.123C26.6996 41.1267 26.2402 41.2697 25.8507 41.5338C25.4612 41.7979 25.1591 42.1713 24.9826 42.6068C24.8062 43.0421 24.7633 43.52 24.8595 43.9796C24.9557 44.4393 25.1866 44.8602 25.5229 45.189C25.8593 45.5178 26.286 45.7397 26.7489 45.8266C27.2119 45.9135 27.6903 45.8615 28.1236 45.6772C28.5569 45.4928 28.9256 45.1845 29.1829 44.7911C29.4402 44.3978 29.5747 43.9372 29.5692 43.4677C29.5619 42.8401 29.3053 42.241 28.8558 41.8015C28.4063 41.3621 27.8003 41.1181 27.1707 41.123Z" fill="#F8AD3A"/>
        <path d="M22.494 32.8615C21.8449 32.8652 21.2114 33.0609 20.674 33.4238C20.1366 33.7868 19.7193 34.3006 19.4752 34.9001C19.231 35.4997 19.1709 36.158 19.3025 36.7916C19.4342 37.4252 19.7515 38.0056 20.2144 38.4593C20.6773 38.9129 21.265 39.2194 21.9028 39.3397C22.5406 39.4601 23.1999 39.3891 23.7972 39.1356C24.3945 38.882 24.9028 38.4575 25.2577 37.9157C25.6126 37.3739 25.7982 36.7393 25.7908 36.0922C25.7872 35.6643 25.699 35.2413 25.5314 34.8474C25.3637 34.4534 25.1199 34.0963 24.8137 33.7962C24.5076 33.4962 24.1452 33.2593 23.7472 33.0989C23.3491 32.9385 22.9233 32.8578 22.494 32.8615Z" fill="#F8AD3A"/>
        <path d="M21.2439 27.24C21.2383 26.5788 21.0361 25.934 20.6627 25.3874C20.2894 24.8408 19.7617 24.4169 19.1465 24.1693C18.5313 23.9218 17.8563 23.8618 17.2069 23.9968C16.5574 24.1319 15.9628 24.456 15.4983 24.9281C15.0337 25.4002 14.7202 25.999 14.5973 26.6489C14.4744 27.2987 14.5476 27.9703 14.8079 28.5785C15.0681 29.1868 15.5035 29.7045 16.059 30.066C16.6145 30.4275 17.2651 30.6165 17.9285 30.6093C18.3683 30.6056 18.8031 30.5156 19.2079 30.3442C19.6128 30.1728 19.9797 29.9234 20.2877 29.6104C20.5956 29.2974 20.8386 28.927 21.0027 28.5202C21.1668 28.1134 21.2487 27.6784 21.2439 27.24Z" fill="#F8AD3A"/>
        <path d="M19.4473 12.6277C19.9969 12.6147 20.5303 12.4395 20.98 12.1242C21.4297 11.8089 21.7754 11.3676 21.9733 10.8564C22.1713 10.3451 22.2126 9.78679 22.0921 9.2521C21.9715 8.71741 21.6946 8.2304 21.2962 7.85271C20.8978 7.47502 20.396 7.22365 19.8542 7.13041C19.3124 7.03716 18.755 7.10625 18.2527 7.32892C17.7503 7.55158 17.3255 7.91782 17.0321 8.38126C16.7386 8.84469 16.5897 9.3845 16.6042 9.93233C16.6236 10.6652 16.9338 11.3605 17.4668 11.8658C17.9997 12.3711 18.712 12.6451 19.4473 12.6277Z" fill="#F8AD3A"/>
        <path d="M17.2339 21.4799C17.881 21.4671 18.5097 21.2637 19.041 20.8954C19.5723 20.527 19.9823 20.0101 20.2193 19.4099C20.4564 18.8097 20.5099 18.1529 20.3732 17.5224C20.2364 16.8919 19.9155 16.3158 19.4509 15.8668C18.9862 15.4178 18.3987 15.1159 17.7622 14.9991C17.1257 14.8824 16.4688 14.9561 15.8742 15.2108C15.2797 15.4656 14.7741 15.89 14.4211 16.4307C14.0682 16.9714 13.8836 17.6041 13.8908 18.2492C13.8956 18.6807 13.9861 19.1069 14.1571 19.5034C14.3281 19.8998 14.5761 20.2586 14.887 20.559C15.1978 20.8593 15.5652 21.0954 15.968 21.2534C16.3709 21.4115 16.8011 21.4885 17.2339 21.4799Z" fill="#F8AD3A"/>
        <path d="M35.1901 40.837C34.6749 40.8334 34.1703 40.9828 33.7407 41.2662C33.3111 41.5497 32.9759 41.9542 32.778 42.4283C32.58 42.9025 32.5282 43.4246 32.6292 43.9282C32.7302 44.4317 32.9794 44.8939 33.345 45.2557C33.7106 45.6175 34.176 45.8626 34.682 45.9596C35.1879 46.0566 35.7113 46.0012 36.1855 45.8005C36.6597 45.5997 37.0632 45.2627 37.3444 44.8324C37.6257 44.4022 37.7719 43.8982 37.7646 43.3847C37.7549 42.7088 37.48 42.0636 36.9988 41.5873C36.5175 41.1111 35.8682 40.8417 35.1901 40.837Z" fill="#164D9D"/>
        <path d="M30.8654 32.8616C30.2162 32.8653 29.5828 33.061 29.0454 33.4239C28.5079 33.7868 28.0907 34.3007 27.8465 34.9002C27.6024 35.4998 27.5423 36.1581 27.6739 36.7917C27.8055 37.4253 28.1229 38.0057 28.5858 38.4594C29.0487 38.913 29.6363 39.2194 30.2741 39.3398C30.912 39.4602 31.5713 39.3892 32.1686 39.1357C32.7658 38.8821 33.2741 38.4576 33.629 37.9158C33.984 37.374 34.1695 36.7394 34.1622 36.0923C34.1524 35.2289 33.8002 34.4044 33.1824 33.7991C32.5647 33.1937 31.7317 32.8566 30.8654 32.8616Z" fill="#164D9D"/>
        <path d="M30.143 27.24C30.1374 26.5776 29.9344 25.9318 29.5597 25.3846C29.1851 24.8375 28.6558 24.4137 28.039 24.167C27.4222 23.9204 26.7457 23.862 26.0956 23.9994C25.4455 24.1368 24.851 24.4636 24.3876 24.9385C23.9242 25.4134 23.6129 26.0148 23.4932 26.6664C23.3735 27.318 23.4508 27.9904 23.7153 28.5981C23.9798 29.2058 24.4195 29.7215 24.9786 30.0796C25.5377 30.4376 26.191 30.622 26.8555 30.6092C27.7389 30.5946 28.5806 30.2321 29.1967 29.6007C29.8127 28.9694 30.1529 28.1206 30.143 27.24Z" fill="#164D9D"/>
        <path d="M26.2443 21.48C26.8934 21.4763 27.5269 21.2806 28.0643 20.9177C28.6017 20.5547 29.019 20.0409 29.2631 19.4414C29.5073 18.8418 29.5674 18.1835 29.4358 17.5499C29.3042 16.9163 28.9868 16.3359 28.5239 15.8822C28.061 15.4286 27.4734 15.1221 26.8355 15.0017C26.1977 14.8813 25.5384 14.9524 24.9411 15.2059C24.3439 15.4595 23.8355 15.884 23.4806 16.4258C23.1257 16.9676 22.9401 17.6022 22.9475 18.2492C22.9572 19.1127 23.3095 19.9372 23.9272 20.5425C24.545 21.1479 25.378 21.4849 26.2443 21.48Z" fill="#164D9D"/>
        <path d="M28.3835 12.923C29.0272 12.9011 29.6501 12.6902 30.1739 12.3166C30.6978 11.9431 31.0992 11.4236 31.3279 10.8235C31.5566 10.2233 31.6024 9.56917 31.4594 8.94319C31.3164 8.3172 30.9911 7.74726 30.5243 7.30491C30.0575 6.86256 29.47 6.56752 28.8356 6.45682C28.2011 6.34613 27.548 6.42471 26.9582 6.6827C26.3684 6.9407 25.8683 7.36661 25.5205 7.90697C25.1727 8.44732 24.9928 9.07805 25.0033 9.71997C25.0105 10.1527 25.104 10.5796 25.2785 10.9759C25.4529 11.3722 25.7049 11.7299 26.0195 12.0281C26.3342 12.3262 26.7053 12.559 27.1112 12.7126C27.517 12.8663 27.9496 12.9378 28.3835 12.923Z" fill="#164D9D"/>
        <path d="M42.5338 42.7754C33.5232 34.4954 26.8555 2.76924 39.9316 4.69497e-06C18.1782 1.9477 31.8562 44.8431 43.4321 47.4462C49.2478 46.2462 43.7377 31.6892 50.0628 32.3262C50.0628 32.3077 45.8121 29.4739 42.5338 42.7754Z" fill="#164D9D"/>
        <path d="M73.159 11.7323C72.9182 5.82463 67.6952 -0.0738313 61.8887 1.48464e-05C48.4607 1.48464e-05 47.1642 13.8462 38.7833 2.13232C45.4602 21.8123 60.0181 -6.59075 68.3434 8.94463C71.3717 19.7354 66.1672 34.8923 59.2679 42.7754C55.6192 28.0062 49.0812 27.5077 44.7935 29.4739C48.4977 28.6154 54.0542 29.0031 55.5914 44.8154C62.9722 57.3785 76.0113 20.0492 73.159 11.7323Z" fill="#164D9D"/>
        <path d="M53.3789 8.86151C60.8616 4.3292 69.9185 6.92304 64.964 25.1446C64.8992 19.5415 64.6955 6.13843 53.3789 8.86151Z" fill="#8ECEE7"/>
    </g>
    <defs>
        <clipPath id="clip0_428_5061">
            <rect width="238" height="48" fill="white"/>
        </clipPath>
    </defs>
    <script xmlns="" id="webrtc-control-b"/><script xmlns=""/></svg>
