<svg version="1.0"
     xmlns="http://www.w3.org/2000/svg"
     width="130"
     height="100"
     viewBox="0 0 2000.000000 1500.000000"
     preserveAspectRatio="xMidYMid meet">
    <g transform="translate(0.000000,1500.000000) scale(0.100000,-0.100000)" fill="#182232" stroke="none">
        <path d="M15090 13404 c-14 -3 -142 -36 -285 -74 -143 -38 -595 -157 -1004 -265 -410 -107 -746 -197 -748 -198 -1 -2 212 -61 475 -132 262 -70 657 -177 877 -237 329 -90 412 -110 470 -110 57 0 141 19 465 105 217 57 677 178 1022 268 344 90 624 167 622 170 -2 4 -25 12 -51 18 -27 7 -416 111 -866 232 -803 216 -899 238 -977 223z"></path>
        <path d="M17175 12725 c-88 -23 -610 -161 -1160 -305 -550 -144 -1003 -265 -1008 -269 -4 -4 -6 -241 -5 -528 l3 -520 1170 307 1170 306 3 527 c1 290 -1 527 -5 526 -5 0 -80 -20 -168 -44z"></path>
        <path d="M12470 12716 c-30 -7 -534 -139 -1120 -294 -586 -154 -1447 -380 -1913 -503 -467 -123 -842 -226 -835 -230 7 -4 267 -75 578 -159 311 -83 696 -187 855 -231 160 -44 319 -82 355 -85 61 -5 108 6 820 194 415 109 1301 343 1967 518 667 175 1209 321 1205 325 -4 3 -239 68 -522 144 -283 75 -670 179 -860 230 -366 100 -441 113 -530 91z"></path>
        <path d="M14585 12045 c-88 -24 -702 -185 -1365 -358 -1422 -373 -1620 -425 -2222 -587 l-458 -123 0 -519 c0 -435 2 -518 14 -518 7 0 733 189 1612 419 880 231 1817 476 2084 546 267 70 488 130 493 134 4 4 6 241 5 527 l-3 521 -160 -42z"></path>
        <path d="M8010 11546 c-30 -7 -512 -133 -1070 -280 -558 -147 -1375 -362 -1815 -477 -440 -116 -818 -215 -840 -221 -36 -9 -38 -11 -18 -19 12 -4 293 -81 625 -169 332 -89 718 -193 858 -231 200 -55 270 -70 325 -70 60 0 208 36 1035 254 531 140 1383 364 1893 498 650 170 922 245 908 251 -12 4 -308 84 -659 179 -350 94 -736 198 -857 230 -242 66 -304 75 -385 55z"></path>
        <path d="M16680 11293 c-770 -201 -3287 -862 -3312 -869 -17 -5 -18 -39 -18 -530 0 -288 2 -524 3 -524 4 0 1408 368 3062 802 506 132 923 244 928 248 4 3 6 240 5 527 l-3 520 -665 -174z"></path>
        <path d="M8665 10491 c-874 -230 -1786 -470 -2025 -533 l-435 -115 -3 -523 -2 -522 27 5 c16 3 936 243 2045 534 l2018 528 0 523 c0 491 -1 522 -17 521 -10 0 -733 -188 -1608 -418z"></path>
        <path d="M3890 9867 l0 -523 48 -12 c26 -7 484 -130 1018 -272 533 -143 976 -260 982 -260 9 0 12 126 12 519 0 286 -3 522 -8 525 -4 2 -318 88 -697 190 -1050 282 -1331 356 -1343 356 -9 0 -12 -134 -12 -523z"></path>
        <path d="M12445 10184 c-341 -90 -1434 -378 -2430 -640 -995 -261 -1827 -480 -1847 -486 l-38 -11 0 -524 c0 -495 1 -524 18 -519 9 3 661 174 1447 380 787 206 1897 497 2468 647 l1037 273 0 523 c0 492 -1 523 -17 522 -10 -1 -297 -75 -638 -165z"></path>
        <path d="M17090 10099 c-124 -33 -637 -168 -1140 -300 -503 -132 -923 -242 -932 -245 -17 -5 -18 -39 -18 -530 0 -496 1 -525 18 -520 9 3 343 91 742 196 399 104 919 241 1155 303 l430 113 3 522 c2 493 1 522 -15 521 -10 0 -119 -27 -243 -60z"></path>
        <path d="M14570 9439 c-80 -22 -1018 -268 -2085 -548 l-1940 -508 -3 -527 c-2 -499 -1 -527 15 -522 10 3 772 203 1693 445 921 242 1861 488 2087 548 l413 108 0 523 c0 491 -1 522 -17 521 -10 -1 -83 -19 -163 -40z"></path>
        <path d="M3890 8568 l0 -523 388 -104 c1045 -281 1648 -441 1660 -441 9 0 12 111 12 523 l0 522 -138 37 c-75 20 -534 142 -1019 272 -484 130 -886 236 -892 236 -8 0 -11 -149 -11 -522z"></path>
        <path d="M7275 8826 c-319 -85 -690 -183 -825 -218 l-245 -65 -3 -523 -2 -523 32 7 c18 3 393 101 834 216 440 116 804 210 807 210 4 0 7 236 7 525 0 414 -3 525 -12 524 -7 0 -274 -69 -593 -153z"></path>
        <path d="M16825 8729 c-269 -71 -1158 -305 -1974 -520 -817 -215 -1488 -392 -1493 -395 -4 -3 -8 -239 -8 -526 l0 -520 28 6 c38 10 2438 639 3272 859 l695 183 3 522 c2 493 1 522 -15 521 -10 0 -238 -59 -508 -130z"></path>
        <path d="M9420 8088 c-459 -121 -1370 -360 -2025 -532 l-1190 -313 -3 -526 -2 -525 32 8 c53 14 3884 1020 3976 1043 l82 22 0 522 c0 492 -1 523 -17 522 -10 -1 -394 -100 -853 -221z"></path>
        <path d="M3890 7267 l0 -523 68 -18 c37 -9 369 -98 737 -198 864 -232 1227 -328 1243 -328 10 0 12 108 10 522 l-3 522 -100 28 c-354 96 -1939 518 -1946 518 -5 0 -9 -225 -9 -523z"></path>
        <path d="M12045 7474 c-572 -150 -1687 -443 -2477 -650 l-1438 -378 0 -524 c0 -494 1 -523 18 -518 9 2 476 125 1037 271 1138 297 3768 987 3858 1012 l57 16 0 523 c0 288 -3 523 -7 523 -5 -1 -476 -124 -1048 -275z"></path>
        <path d="M16950 7464 c-195 -52 -699 -184 -1120 -295 -421 -110 -780 -205 -797 -210 l-33 -11 0 -524 c0 -288 1 -524 3 -524 2 0 1153 301 1989 521 l358 94 0 523 0 522 -22 -1 c-13 -1 -183 -44 -378 -95z"></path>
        <path d="M14610 6850 c-58 -16 -980 -259 -2050 -540 -1070 -281 -1962 -515 -1982 -521 l-38 -10 0 -524 c0 -289 2 -525 5 -525 5 0 2202 577 3778 991 l427 113 0 523 c0 492 -1 523 -17 522 -10 0 -65 -13 -123 -29z"></path>
        <path d="M3890 5968 l0 -523 518 -139 c284 -77 747 -201 1027 -276 l510 -137 3 520 c1 287 -1 524 -5 528 -11 9 -2022 549 -2046 549 -4 0 -7 -235 -7 -522z"></path>
        <path d="M7715 6339 c-82 -22 -433 -114 -780 -205 -346 -91 -654 -172 -682 -180 l-53 -15 0 -524 0 -524 153 40 c83 22 459 121 834 220 375 98 684 179 687 179 3 0 6 236 6 525 0 289 -3 525 -7 524 -5 0 -75 -18 -158 -40z"></path>
        <path d="M9660 5549 c-333 -88 -1147 -302 -1810 -476 -663 -173 -1225 -322 -1250 -329 -37 -10 295 -12 1823 -13 l1867 -1 0 490 c0 386 -3 490 -12 489 -7 0 -285 -72 -618 -160z"></path>
        <path d="M3890 4960 l0 -230 858 1 857 1 -120 33 c-231 63 -1584 425 -1589 425 -3 0 -6 -103 -6 -230z"></path>
        <path d="M6170 3540 c-175 -22 -315 -77 -395 -155 -27 -26 -60 -74 -78 -113 -31 -64 -32 -72 -32 -192 0 -114 2 -130 26 -180 34 -72 72 -116 134 -155 114 -73 244 -101 520 -114 203 -10 271 -22 304 -52 43 -40 39 -105 -9 -141 -90 -67 -494 -61 -875 13 -55 10 -103 19 -107 19 -5 0 -8 -78 -8 -174 0 -158 2 -175 18 -180 45 -14 275 -46 408 -57 173 -14 454 -6 559 15 204 41 342 137 397 275 18 46 22 76 23 171 0 106 -2 120 -29 177 -53 115 -167 198 -326 236 -84 21 -237 37 -344 37 -105 0 -231 17 -268 36 -56 29 -66 98 -20 144 72 72 401 78 748 14 72 -13 139 -26 148 -30 14 -6 16 11 16 170 l0 175 -37 10 c-21 6 -94 20 -163 31 -139 24 -495 35 -610 20z"></path>
        <path d="M11905 3540 c-82 -5 -197 -14 -254 -20 -58 -5 -113 -10 -123 -10 -17 0 -18 -29 -18 -710 l0 -710 190 0 190 0 0 236 0 235 55 -6 c30 -4 128 -10 217 -14 l162 -6 140 -223 141 -222 182 0 183 0 0 45 c0 40 -13 66 -129 252 l-130 207 42 24 c94 52 162 148 186 260 16 78 14 276 -5 347 -40 154 -142 246 -332 297 -65 17 -112 21 -312 23 -129 2 -302 -1 -385 -5z m598 -357 c55 -25 67 -49 67 -131 0 -82 -23 -122 -85 -147 -45 -18 -73 -20 -285 -20 -129 0 -252 4 -272 8 l-38 8 0 144 0 144 43 5 c78 11 151 13 337 12 166 -2 190 -4 233 -23z"></path>
        <path d="M14930 3540 c-175 -22 -315 -77 -395 -155 -27 -26 -60 -74 -78 -113 -31 -64 -32 -72 -32 -192 0 -114 2 -130 26 -180 34 -72 72 -116 134 -155 114 -73 244 -101 520 -114 203 -10 271 -22 304 -52 43 -40 39 -105 -9 -141 -90 -67 -494 -61 -875 13 -55 10 -103 19 -107 19 -5 0 -8 -78 -8 -174 0 -158 2 -175 18 -180 45 -14 275 -46 408 -57 173 -14 454 -6 559 15 204 41 342 137 397 275 18 46 22 76 23 171 0 106 -2 120 -29 177 -53 115 -167 198 -326 236 -84 21 -237 37 -344 37 -105 0 -231 17 -268 36 -56 29 -66 98 -20 144 72 72 401 78 748 14 72 -13 139 -26 148 -30 14 -6 16 11 16 170 l0 175 -37 10 c-21 6 -94 20 -163 31 -139 24 -495 35 -610 20z"></path>
        <path d="M17805 3540 c-82 -5 -197 -14 -254 -20 -58 -5 -113 -10 -123 -10 -17 0 -18 -29 -18 -710 l0 -710 190 0 190 0 0 190 0 190 88 -7 c48 -5 193 -8 322 -8 252 1 306 8 415 59 109 50 188 154 220 287 17 73 20 288 6 365 -36 189 -146 301 -348 356 -67 18 -111 21 -308 23 -126 2 -297 -1 -380 -5z m580 -360 c68 -34 85 -70 85 -178 0 -141 -32 -180 -164 -203 -72 -12 -446 -7 -493 7 -23 6 -23 8 -23 195 l0 188 43 5 c74 10 157 13 332 12 160 -1 173 -3 220 -26z"></path>
        <path d="M1160 2800 l0 -710 190 0 190 0 2 423 3 422 199 -277 199 -278 97 0 97 0 199 278 199 277 3 -422 2 -423 190 0 190 0 0 710 0 710 -192 0 -193 -1 -245 -359 c-134 -198 -247 -360 -250 -360 -3 0 -116 162 -250 360 l-245 359 -192 1 -193 0 0 -710z"></path>
        <path d="M3778 2840 c-252 -531 -318 -679 -318 -710 l0 -40 174 0 173 0 59 140 59 140 360 0 360 0 60 -137 60 -138 173 -3 172 -2 0 44 c0 38 -48 146 -316 710 l-317 666 -191 0 -191 0 -317 -670z m628 68 c52 -116 93 -213 91 -215 -2 -2 -99 -2 -214 -1 l-211 3 107 237 c101 227 107 236 119 211 8 -14 56 -120 108 -235z"></path>
        <path d="M7560 3340 l0 -170 275 0 275 0 0 -540 0 -540 190 0 190 0 0 540 0 540 275 0 275 0 0 170 0 170 -740 0 -740 0 0 -170z"></path>
        <path d="M9580 2800 l0 -710 680 0 680 0 0 170 0 170 -490 0 -490 0 0 95 0 95 385 0 385 0 0 170 0 170 -385 0 -385 0 0 105 0 105 490 0 490 0 0 170 0 170 -680 0 -680 0 0 -710z"></path>
        <path d="M16410 2800 l0 -710 190 0 190 0 0 710 0 710 -190 0 -190 0 0 -710z"></path>
        <path d="M6990 938 c-28 -30 -28 -110 0 -138 20 -20 33 -20 3020 -20 2987 0 3000 0 3020 20 28 28 28 108 0 138 l-21 22 -2999 0 -2999 0 -21 -22z"></path>
    </g>
</svg>
